<?xml version="1.0" encoding="utf-8" ?>
<svg baseProfile="tiny" height="100%" version="1.2" width="100%" xmlns="http://www.w3.org/2000/svg" xmlns:ev="http://www.w3.org/2001/xml-events" xmlns:xlink="http://www.w3.org/1999/xlink"><defs /><rect fill="white" height="100%" width="100%" x="0" y="0" /><line stroke="navy" x1="7.5cm" x2="8.5cm" y1="4.5cm" y2="4.5cm" /><line stroke="navy" x1="6.5cm" x2="6.5cm" y1="4.5cm" y2="5.5cm" /><line stroke="navy" x1="8.5cm" x2="8.5cm" y1="4.5cm" y2="3.5cm" /><line stroke="navy" x1="6.5cm" x2="5.5cm" y1="5.5cm" y2="5.5cm" /><line stroke="navy" x1="8.5cm" x2="8.5cm" y1="3.5cm" y2="2.5cm" /><line stroke="navy" x1="5.5cm" x2="5.5cm" y1="5.5cm" y2="6.5cm" /><line stroke="navy" x1="8.5cm" x2="9.5cm" y1="2.5cm" y2="2.5cm" /><line stroke="navy" x1="5.5cm" x2="4.5cm" y1="6.5cm" y2="6.5cm" /><line stroke="navy" x1="9.5cm" x2="10.5cm" y1="2.5cm" y2="2.5cm" /><line stroke="navy" x1="4.5cm" x2="3.5cm" y1="6.5cm" y2="6.5cm" /><line stroke="navy" x1="10.5cm" x2="10.5cm" y1="2.5cm" y2="1.5cm" /><line stroke="navy" x1="3.5cm" x2="4.5cm" y1="6.5cm" y2="6.5cm" /><line stroke="navy" x1="10.5cm" x2="11.5cm" y1="1.5cm" y2="1.5cm" /><line stroke="navy" x1="4.5cm" x2="5.5cm" y1="6.5cm" y2="6.5cm" /><line stroke="navy" x1="11.5cm" x2="12.5cm" y1="1.5cm" y2="1.5cm" /><line stroke="navy" x1="5.5cm" x2="6.5cm" y1="6.5cm" y2="6.5cm" /><line stroke="navy" x1="12.5cm" x2="12.5cm" y1="1.5cm" y2="2.5cm" /><line stroke="navy" x1="6.5cm" x2="7.5cm" y1="6.5cm" y2="6.5cm" /><line stroke="navy" x1="12.5cm" x2="11.5cm" y1="2.5cm" y2="2.5cm" /><line stroke="navy" x1="7.5cm" x2="6.5cm" y1="6.5cm" y2="6.5cm" /><line stroke="navy" x1="11.5cm" x2="10.5cm" y1="2.5cm" y2="2.5cm" /><line stroke="navy" x1="6.5cm" x2="5.5cm" y1="6.5cm" y2="6.5cm" /><line stroke="navy" x1="10.5cm" x2="9.5cm" y1="2.5cm" y2="2.5cm" /><line stroke="navy" x1="5.5cm" x2="4.5cm" y1="6.5cm" y2="6.5cm" /><line stroke="navy" x1="9.5cm" x2="8.5cm" y1="2.5cm" y2="2.5cm" /><line stroke="navy" x1="4.5cm" x2="3.5cm" y1="6.5cm" y2="6.5cm" /><line stroke="navy" x1="8.5cm" x2="7.5cm" y1="2.5cm" y2="2.5cm" /><line stroke="navy" x1="3.5cm" x2="3.5cm" y1="6.5cm" y2="5.5cm" /><line stroke="navy" x1="7.5cm" x2="7.5cm" y1="2.5cm" y2="1.5cm" /><rect fill="black" height="1cm" width="1cm" x="0cm" y="0cm" /><text fill="white" font-family="sans-serif" font-size="0.5cm" text-anchor="middle" x="0.5cm" y="0.7cm" /><rect fill="black" height="1cm" width="1cm" x="1cm" y="0cm" /><text fill="white" font-family="sans-serif" font-size="0.5cm" text-anchor="middle" x="1.5cm" y="0.7cm" /><rect fill="black" height="1cm" width="1cm" x="2cm" y="0cm" /><text fill="white" font-family="sans-serif" font-size="0.5cm" text-anchor="middle" x="2.5cm" y="0.7cm" /><rect fill="black" height="1cm" width="1cm" x="3cm" y="0cm" /><text fill="white" font-family="sans-serif" font-size="0.5cm" text-anchor="middle" x="3.5cm" y="0.7cm" /><rect fill="black" height="1cm" width="1cm" x="4cm" y="0cm" /><text fill="white" font-family="sans-serif" font-size="0.5cm" text-anchor="middle" x="4.5cm" y="0.7cm" /><rect fill="black" height="1cm" width="1cm" x="5cm" y="0cm" /><text fill="white" font-family="sans-serif" font-size="0.5cm" text-anchor="middle" x="5.5cm" y="0.7cm" /><rect fill="black" height="1cm" width="1cm" x="6cm" y="0cm" /><text fill="white" font-family="sans-serif" font-size="0.5cm" text-anchor="middle" x="6.5cm" y="0.7cm" /><rect fill="black" height="1cm" width="1cm" x="7cm" y="0cm" /><text fill="white" font-family="sans-serif" font-size="0.5cm" text-anchor="middle" x="7.5cm" y="0.7cm" /><rect fill="black" height="1cm" width="1cm" x="8cm" y="0cm" /><text fill="white" font-family="sans-serif" font-size="0.5cm" text-anchor="middle" x="8.5cm" y="0.7cm" /><rect fill="black" height="1cm" width="1cm" x="9cm" y="0cm" /><text fill="white" font-family="sans-serif" font-size="0.5cm" text-anchor="middle" x="9.5cm" y="0.7cm" /><rect fill="black" height="1cm" width="1cm" x="10cm" y="0cm" /><text fill="white" font-family="sans-serif" font-size="0.5cm" text-anchor="middle" x="10.5cm" y="0.7cm" /><rect fill="black" height="1cm" width="1cm" x="11cm" y="0cm" /><text fill="white" font-family="sans-serif" font-size="0.5cm" text-anchor="middle" x="11.5cm" y="0.7cm" /><rect fill="black" height="1cm" width="1cm" x="12cm" y="0cm" /><text fill="white" font-family="sans-serif" font-size="0.5cm" text-anchor="middle" x="12.5cm" y="0.7cm" /><rect fill="black" height="1cm" width="1cm" x="13cm" y="0cm" /><text fill="white" font-family="sans-serif" font-size="0.5cm" text-anchor="middle" x="13.5cm" y="0.7cm" /><rect fill="black" height="1cm" width="1cm" x="0cm" y="1cm" /><text fill="white" font-family="sans-serif" font-size="0.5cm" text-anchor="middle" x="0.5cm" y="1.7cm" /><rect fill="black" height="1cm" width="1cm" x="4cm" y="1cm" /><text fill="white" font-family="sans-serif" font-size="0.5cm" text-anchor="middle" x="4.5cm" y="1.7cm" /><rect fill="black" height="1cm" width="1cm" x="9cm" y="1cm" /><text fill="white" font-family="sans-serif" font-size="0.5cm" text-anchor="middle" x="9.5cm" y="1.7cm" /><rect fill="black" height="1cm" width="1cm" x="13cm" y="1cm" /><text fill="white" font-family="sans-serif" font-size="0.5cm" text-anchor="middle" x="13.5cm" y="1.7cm" /><rect fill="black" height="1cm" width="1cm" x="0cm" y="2cm" /><text fill="white" font-family="sans-serif" font-size="0.5cm" text-anchor="middle" x="0.5cm" y="2.7cm" /><rect fill="black" height="1cm" width="1cm" x="13cm" y="2cm" /><text fill="white" font-family="sans-serif" font-size="0.5cm" text-anchor="middle" x="13.5cm" y="2.7cm" /><rect fill="black" height="1cm" width="1cm" x="0cm" y="3cm" /><text fill="white" font-family="sans-serif" font-size="0.5cm" text-anchor="middle" x="0.5cm" y="3.7cm" /><rect fill="black" height="1cm" width="1cm" x="4cm" y="3cm" /><text fill="white" font-family="sans-serif" font-size="0.5cm" text-anchor="middle" x="4.5cm" y="3.7cm" /><rect fill="black" height="1cm" width="1cm" x="9cm" y="3cm" /><text fill="white" font-family="sans-serif" font-size="0.5cm" text-anchor="middle" x="9.5cm" y="3.7cm" /><rect fill="black" height="1cm" width="1cm" x="13cm" y="3cm" /><text fill="white" font-family="sans-serif" font-size="0.5cm" text-anchor="middle" x="13.5cm" y="3.7cm" /><rect fill="black" height="1cm" width="1cm" x="0cm" y="4cm" /><text fill="white" font-family="sans-serif" font-size="0.5cm" text-anchor="middle" x="0.5cm" y="4.7cm" /><rect fill="black" height="1cm" width="1cm" x="1cm" y="4cm" /><text fill="white" font-family="sans-serif" font-size="0.5cm" text-anchor="middle" x="1.5cm" y="4.7cm" /><rect fill="black" height="1cm" width="1cm" x="2cm" y="4cm" /><text fill="white" font-family="sans-serif" font-size="0.5cm" text-anchor="middle" x="2.5cm" y="4.7cm" /><rect fill="black" height="1cm" width="1cm" x="3cm" y="4cm" /><text fill="white" font-family="sans-serif" font-size="0.5cm" text-anchor="middle" x="3.5cm" y="4.7cm" /><rect fill="black" height="1cm" width="1cm" x="4cm" y="4cm" /><text fill="white" font-family="sans-serif" font-size="0.5cm" text-anchor="middle" x="4.5cm" y="4.7cm" /><rect fill="black" height="1cm" width="1cm" x="9cm" y="4cm" /><text fill="white" font-family="sans-serif" font-size="0.5cm" text-anchor="middle" x="9.5cm" y="4.7cm" /><rect fill="black" height="1cm" width="1cm" x="10cm" y="4cm" /><text fill="white" font-family="sans-serif" font-size="0.5cm" text-anchor="middle" x="10.5cm" y="4.7cm" /><rect fill="black" height="1cm" width="1cm" x="11cm" y="4cm" /><text fill="white" font-family="sans-serif" font-size="0.5cm" text-anchor="middle" x="11.5cm" y="4.7cm" /><rect fill="black" height="1cm" width="1cm" x="12cm" y="4cm" /><text fill="white" font-family="sans-serif" font-size="0.5cm" text-anchor="middle" x="12.5cm" y="4.7cm" /><rect fill="black" height="1cm" width="1cm" x="13cm" y="4cm" /><text fill="white" font-family="sans-serif" font-size="0.5cm" text-anchor="middle" x="13.5cm" y="4.7cm" /><rect fill="black" height="1cm" width="1cm" x="0cm" y="5cm" /><text fill="white" font-family="sans-serif" font-size="0.5cm" text-anchor="middle" x="0.5cm" y="5.7cm" /><rect fill="black" height="1cm" width="1cm" x="4cm" y="5cm" /><text fill="white" font-family="sans-serif" font-size="0.5cm" text-anchor="middle" x="4.5cm" y="5.7cm" /><rect fill="black" height="1cm" width="1cm" x="9cm" y="5cm" /><text fill="white" font-family="sans-serif" font-size="0.5cm" text-anchor="middle" x="9.5cm" y="5.7cm" /><rect fill="black" height="1cm" width="1cm" x="13cm" y="5cm" /><text fill="white" font-family="sans-serif" font-size="0.5cm" text-anchor="middle" x="13.5cm" y="5.7cm" /><rect fill="black" height="1cm" width="1cm" x="0cm" y="6cm" /><text fill="white" font-family="sans-serif" font-size="0.5cm" text-anchor="middle" x="0.5cm" y="6.7cm" /><rect fill="black" height="1cm" width="1cm" x="13cm" y="6cm" /><text fill="white" font-family="sans-serif" font-size="0.5cm" text-anchor="middle" x="13.5cm" y="6.7cm" /><rect fill="black" height="1cm" width="1cm" x="0cm" y="7cm" /><text fill="white" font-family="sans-serif" font-size="0.5cm" text-anchor="middle" x="0.5cm" y="7.7cm" /><rect fill="black" height="1cm" width="1cm" x="4cm" y="7cm" /><text fill="white" font-family="sans-serif" font-size="0.5cm" text-anchor="middle" x="4.5cm" y="7.7cm" /><rect fill="black" height="1cm" width="1cm" x="9cm" y="7cm" /><text fill="white" font-family="sans-serif" font-size="0.5cm" text-anchor="middle" x="9.5cm" y="7.7cm" /><rect fill="black" height="1cm" width="1cm" x="13cm" y="7cm" /><text fill="white" font-family="sans-serif" font-size="0.5cm" text-anchor="middle" x="13.5cm" y="7.7cm" /><rect fill="black" height="1cm" width="1cm" x="0cm" y="8cm" /><text fill="white" font-family="sans-serif" font-size="0.5cm" text-anchor="middle" x="0.5cm" y="8.7cm" /><rect fill="black" height="1cm" width="1cm" x="1cm" y="8cm" /><text fill="white" font-family="sans-serif" font-size="0.5cm" text-anchor="middle" x="1.5cm" y="8.7cm" /><rect fill="black" height="1cm" width="1cm" x="2cm" y="8cm" /><text fill="white" font-family="sans-serif" font-size="0.5cm" text-anchor="middle" x="2.5cm" y="8.7cm" /><rect fill="black" height="1cm" width="1cm" x="3cm" y="8cm" /><text fill="white" font-family="sans-serif" font-size="0.5cm" text-anchor="middle" x="3.5cm" y="8.7cm" /><rect fill="black" height="1cm" width="1cm" x="4cm" y="8cm" /><text fill="white" font-family="sans-serif" font-size="0.5cm" text-anchor="middle" x="4.5cm" y="8.7cm" /><rect fill="pink" height="1cm" width="1cm" x="5cm" y="8cm" /><text fill="white" font-family="sans-serif" font-size="0.5cm" text-anchor="middle" x="5.5cm" y="8.7cm">a</text><rect fill="pink" height="1cm" width="1cm" x="6cm" y="8cm" /><text fill="white" font-family="sans-serif" font-size="0.5cm" text-anchor="middle" x="6.5cm" y="8.7cm">b</text><rect fill="pink" height="1cm" width="1cm" x="7cm" y="8cm" /><text fill="white" font-family="sans-serif" font-size="0.5cm" text-anchor="middle" x="7.5cm" y="8.7cm">c</text><rect fill="pink" height="1cm" width="1cm" x="8cm" y="8cm" /><text fill="white" font-family="sans-serif" font-size="0.5cm" text-anchor="middle" x="8.5cm" y="8.7cm">d</text><rect fill="black" height="1cm" width="1cm" x="9cm" y="8cm" /><text fill="white" font-family="sans-serif" font-size="0.5cm" text-anchor="middle" x="9.5cm" y="8.7cm" /><rect fill="black" height="1cm" width="1cm" x="10cm" y="8cm" /><text fill="white" font-family="sans-serif" font-size="0.5cm" text-anchor="middle" x="10.5cm" y="8.7cm" /><rect fill="black" height="1cm" width="1cm" x="11cm" y="8cm" /><text fill="white" font-family="sans-serif" font-size="0.5cm" text-anchor="middle" x="11.5cm" y="8.7cm" /><rect fill="black" height="1cm" width="1cm" x="12cm" y="8cm" /><text fill="white" font-family="sans-serif" font-size="0.5cm" text-anchor="middle" x="12.5cm" y="8.7cm" /><rect fill="black" height="1cm" width="1cm" x="13cm" y="8cm" /><text fill="white" font-family="sans-serif" font-size="0.5cm" text-anchor="middle" x="13.5cm" y="8.7cm" /><rect fill="black" height="1cm" width="1cm" x="4cm" y="9cm" /><text fill="white" font-family="sans-serif" font-size="0.5cm" text-anchor="middle" x="4.5cm" y="9.7cm" /><rect fill="black" height="1cm" width="1cm" x="5cm" y="9cm" /><text fill="white" font-family="sans-serif" font-size="0.5cm" text-anchor="middle" x="5.5cm" y="9.7cm" /><rect fill="black" height="1cm" width="1cm" x="6cm" y="9cm" /><text fill="white" font-family="sans-serif" font-size="0.5cm" text-anchor="middle" x="6.5cm" y="9.7cm" /><rect fill="black" height="1cm" width="1cm" x="7cm" y="9cm" /><text fill="white" font-family="sans-serif" font-size="0.5cm" text-anchor="middle" x="7.5cm" y="9.7cm" /><rect fill="black" height="1cm" width="1cm" x="8cm" y="9cm" /><text fill="white" font-family="sans-serif" font-size="0.5cm" text-anchor="middle" x="8.5cm" y="9.7cm" /><rect fill="black" height="1cm" width="1cm" x="9cm" y="9cm" /><text fill="white" font-family="sans-serif" font-size="0.5cm" text-anchor="middle" x="9.5cm" y="9.7cm" /><rect fill="blue" height="1cm" width="1cm" x="3cm" y="5cm" /><text fill="white" font-family="sans-serif" font-size="0.5cm" text-anchor="middle" x="3.5cm" y="5.7cm">R0</text><rect fill="blue" height="1cm" width="1cm" x="7cm" y="1cm" /><text fill="white" font-family="sans-serif" font-size="0.5cm" text-anchor="middle" x="7.5cm" y="1.7cm">R1</text><rect fill="red" height="1cm" width="1cm" x="2cm" y="2cm" /><text fill="white" font-family="sans-serif" font-size="0.5cm" text-anchor="middle" x="2.5cm" y="2.7cm">A</text><rect fill="red" height="1cm" width="1cm" x="6cm" y="2cm" /><text fill="white" font-family="sans-serif" font-size="0.5cm" text-anchor="middle" x="6.5cm" y="2.7cm">B</text><rect fill="red" height="1cm" width="1cm" x="2cm" y="6cm" /><text fill="white" font-family="sans-serif" font-size="0.5cm" text-anchor="middle" x="2.5cm" y="6.7cm">C</text><rect fill="red" height="1cm" width="1cm" x="11cm" y="6cm" /><text fill="white" font-family="sans-serif" font-size="0.5cm" text-anchor="middle" x="11.5cm" y="6.7cm">D</text></svg>